{
    "asset" : {
        "generator" : "Khronos glTF Blender I/O v3.3.32",
        "version" : "2.0"
    },
    "scene" : 0,
    "scenes" : [
        {
            "name" : "Scene",
            "nodes" : [
                0,
                7
            ]
        }
    ],
    "nodes" : [
        {
            "mesh" : 0,
            "name" : "Cylinder"
        },
        {
            "name" : "Bone.001",
            "rotation" : [
                0.004770283587276936,
                0.0047846594825387,
                -0.7060258984565735,
                0.7081538438796997
            ],
            "scale" : [
                0.9999998211860657,
                0.9999999403953552,
                0.9999999403953552
            ],
            "translation" : [
                -1.862645371275562e-09,
                1.0363558530807495,
                -2.9802322387695312e-08
            ]
        },
        {
            "children" : [
                1
            ],
            "name" : "Bone",
            "rotation" : [
                -0.6532815098762512,
                -0.27059802412986755,
                -0.27059805393218994,
                0.6532815098762512
            ],
            "scale" : [
                1,
                0.9999998807907104,
                1
            ],
            "translation" : [
                -0.027790825814008713,
                0.4000000059604645,
                0.02779082953929901
            ]
        },
        {
            "name" : "Target",
            "translation" : [
                1.3994063138961792,
                0.4000000059604645,
                -0.014807283878326416
            ]
        },
        {
            "mesh" : 1,
            "name" : "Cylinder.001",
            "skin" : 0
        },
        {
            "mesh" : 2,
            "name" : "Cylinder.002",
            "skin" : 0
        },
        {
            "mesh" : 3,
            "name" : "Cylinder.003",
            "skin" : 0
        },
        {
            "children" : [
                4,
                5,
                6,
                2,
                3
            ],
            "name" : "Armature"
        }
    ],
    "animations" : [
        {
            "channels" : [
                {
                    "sampler" : 0,
                    "target" : {
                        "node" : 0,
                        "path" : "translation"
                    }
                },
                {
                    "sampler" : 1,
                    "target" : {
                        "node" : 0,
                        "path" : "rotation"
                    }
                },
                {
                    "sampler" : 2,
                    "target" : {
                        "node" : 0,
                        "path" : "scale"
                    }
                }
            ],
            "name" : "Cylinder",
            "samplers" : [
                {
                    "input" : 23,
                    "interpolation" : "LINEAR",
                    "output" : 24
                },
                {
                    "input" : 23,
                    "interpolation" : "LINEAR",
                    "output" : 25
                },
                {
                    "input" : 23,
                    "interpolation" : "LINEAR",
                    "output" : 26
                }
            ]
        },
        {
            "channels" : [
                {
                    "sampler" : 0,
                    "target" : {
                        "node" : 2,
                        "path" : "translation"
                    }
                },
                {
                    "sampler" : 1,
                    "target" : {
                        "node" : 2,
                        "path" : "rotation"
                    }
                },
                {
                    "sampler" : 2,
                    "target" : {
                        "node" : 2,
                        "path" : "scale"
                    }
                },
                {
                    "sampler" : 3,
                    "target" : {
                        "node" : 1,
                        "path" : "translation"
                    }
                },
                {
                    "sampler" : 4,
                    "target" : {
                        "node" : 1,
                        "path" : "rotation"
                    }
                },
                {
                    "sampler" : 5,
                    "target" : {
                        "node" : 1,
                        "path" : "scale"
                    }
                },
                {
                    "sampler" : 6,
                    "target" : {
                        "node" : 3,
                        "path" : "translation"
                    }
                },
                {
                    "sampler" : 7,
                    "target" : {
                        "node" : 3,
                        "path" : "rotation"
                    }
                },
                {
                    "sampler" : 8,
                    "target" : {
                        "node" : 3,
                        "path" : "scale"
                    }
                }
            ],
            "name" : "ArmatureAction",
            "samplers" : [
                {
                    "input" : 23,
                    "interpolation" : "LINEAR",
                    "output" : 27
                },
                {
                    "input" : 23,
                    "interpolation" : "LINEAR",
                    "output" : 28
                },
                {
                    "input" : 23,
                    "interpolation" : "LINEAR",
                    "output" : 29
                },
                {
                    "input" : 23,
                    "interpolation" : "LINEAR",
                    "output" : 30
                },
                {
                    "input" : 23,
                    "interpolation" : "LINEAR",
                    "output" : 31
                },
                {
                    "input" : 23,
                    "interpolation" : "LINEAR",
                    "output" : 32
                },
                {
                    "input" : 23,
                    "interpolation" : "LINEAR",
                    "output" : 33
                },
                {
                    "input" : 23,
                    "interpolation" : "LINEAR",
                    "output" : 34
                },
                {
                    "input" : 23,
                    "interpolation" : "LINEAR",
                    "output" : 35
                }
            ]
        }
    ],
    "meshes" : [
        {
            "name" : "Cylinder",
            "primitives" : [
                {
                    "attributes" : {
                        "POSITION" : 0,
                        "NORMAL" : 1,
                        "TEXCOORD_0" : 2
                    },
                    "indices" : 3
                }
            ]
        },
        {
            "name" : "Cylinder.001",
            "primitives" : [
                {
                    "attributes" : {
                        "POSITION" : 4,
                        "NORMAL" : 5,
                        "TEXCOORD_0" : 6,
                        "JOINTS_0" : 7,
                        "WEIGHTS_0" : 8
                    },
                    "indices" : 9
                }
            ]
        },
        {
            "name" : "Cylinder.002",
            "primitives" : [
                {
                    "attributes" : {
                        "POSITION" : 11,
                        "NORMAL" : 12,
                        "TEXCOORD_0" : 13,
                        "JOINTS_0" : 14,
                        "WEIGHTS_0" : 15
                    },
                    "indices" : 16
                }
            ]
        },
        {
            "name" : "Cylinder.003",
            "primitives" : [
                {
                    "attributes" : {
                        "POSITION" : 17,
                        "NORMAL" : 18,
                        "TEXCOORD_0" : 19,
                        "JOINTS_0" : 20,
                        "WEIGHTS_0" : 21
                    },
                    "indices" : 22
                }
            ]
        }
    ],
    "skins" : [
        {
            "inverseBindMatrices" : 10,
            "joints" : [
                2,
                1,
                3
            ],
            "name" : "Armature"
        }
    ],
    "accessors" : [
        {
            "bufferView" : 0,
            "componentType" : 5126,
            "count" : 320,
            "max" : [
                0.3719121813774109,
                0.20000000298023224,
                0.3719121813774109
            ],
            "min" : [
                -0.3719121813774109,
                0,
                -0.3719121813774109
            ],
            "type" : "VEC3"
        },
        {
            "bufferView" : 1,
            "componentType" : 5126,
            "count" : 320,
            "type" : "VEC3"
        },
        {
            "bufferView" : 2,
            "componentType" : 5126,
            "count" : 320,
            "type" : "VEC2"
        },
        {
            "bufferView" : 3,
            "componentType" : 5123,
            "count" : 564,
            "type" : "SCALAR"
        },
        {
            "bufferView" : 4,
            "componentType" : 5126,
            "count" : 320,
            "max" : [
                0.9571066498756409,
                0.4000000059604645,
                0.2499999701976776
            ],
            "min" : [
                -0.2499999701976776,
                0.20000001788139343,
                -0.9571066498756409
            ],
            "type" : "VEC3"
        },
        {
            "bufferView" : 5,
            "componentType" : 5126,
            "count" : 320,
            "type" : "VEC3"
        },
        {
            "bufferView" : 6,
            "componentType" : 5126,
            "count" : 320,
            "type" : "VEC2"
        },
        {
            "bufferView" : 7,
            "componentType" : 5121,
            "count" : 320,
            "type" : "VEC4"
        },
        {
            "bufferView" : 8,
            "componentType" : 5126,
            "count" : 320,
            "type" : "VEC4"
        },
        {
            "bufferView" : 9,
            "componentType" : 5123,
            "count" : 564,
            "type" : "SCALAR"
        },
        {
            "bufferView" : 10,
            "componentType" : 5126,
            "count" : 3,
            "type" : "MAT4"
        },
        {
            "bufferView" : 11,
            "componentType" : 5126,
            "count" : 320,
            "max" : [
                1.5492208003997803,
                0.5,
                0.1350073218345642
            ],
            "min" : [
                0.533318042755127,
                0.4000000059604645,
                -0.8808954954147339
            ],
            "type" : "VEC3"
        },
        {
            "bufferView" : 12,
            "componentType" : 5126,
            "count" : 320,
            "type" : "VEC3"
        },
        {
            "bufferView" : 13,
            "componentType" : 5126,
            "count" : 320,
            "type" : "VEC2"
        },
        {
            "bufferView" : 14,
            "componentType" : 5121,
            "count" : 320,
            "type" : "VEC4"
        },
        {
            "bufferView" : 15,
            "componentType" : 5126,
            "count" : 320,
            "type" : "VEC4"
        },
        {
            "bufferView" : 16,
            "componentType" : 5123,
            "count" : 564,
            "type" : "SCALAR"
        },
        {
            "bufferView" : 17,
            "componentType" : 5126,
            "count" : 568,
            "max" : [
                1.4933454990386963,
                0.3999999463558197,
                0.07913213968276978
            ],
            "min" : [
                1.305466651916504,
                0.1727587729692459,
                -0.1087467223405838
            ],
            "type" : "VEC3"
        },
        {
            "bufferView" : 18,
            "componentType" : 5126,
            "count" : 568,
            "type" : "VEC3"
        },
        {
            "bufferView" : 19,
            "componentType" : 5126,
            "count" : 568,
            "type" : "VEC2"
        },
        {
            "bufferView" : 20,
            "componentType" : 5121,
            "count" : 568,
            "type" : "VEC4"
        },
        {
            "bufferView" : 21,
            "componentType" : 5126,
            "count" : 568,
            "type" : "VEC4"
        },
        {
            "bufferView" : 22,
            "componentType" : 5123,
            "count" : 948,
            "type" : "SCALAR"
        },
        {
            "bufferView" : 23,
            "componentType" : 5126,
            "count" : 130,
            "max" : [
                5.416666666666667
            ],
            "min" : [
                0.041666666666666664
            ],
            "type" : "SCALAR"
        },
        {
            "bufferView" : 24,
            "componentType" : 5126,
            "count" : 130,
            "type" : "VEC3"
        },
        {
            "bufferView" : 25,
            "componentType" : 5126,
            "count" : 130,
            "type" : "VEC4"
        },
        {
            "bufferView" : 26,
            "componentType" : 5126,
            "count" : 130,
            "type" : "VEC3"
        },
        {
            "bufferView" : 27,
            "componentType" : 5126,
            "count" : 130,
            "type" : "VEC3"
        },
        {
            "bufferView" : 28,
            "componentType" : 5126,
            "count" : 130,
            "type" : "VEC4"
        },
        {
            "bufferView" : 29,
            "componentType" : 5126,
            "count" : 130,
            "type" : "VEC3"
        },
        {
            "bufferView" : 30,
            "componentType" : 5126,
            "count" : 130,
            "type" : "VEC3"
        },
        {
            "bufferView" : 31,
            "componentType" : 5126,
            "count" : 130,
            "type" : "VEC4"
        },
        {
            "bufferView" : 32,
            "componentType" : 5126,
            "count" : 130,
            "type" : "VEC3"
        },
        {
            "bufferView" : 33,
            "componentType" : 5126,
            "count" : 130,
            "type" : "VEC3"
        },
        {
            "bufferView" : 34,
            "componentType" : 5126,
            "count" : 130,
            "type" : "VEC4"
        },
        {
            "bufferView" : 35,
            "componentType" : 5126,
            "count" : 130,
            "type" : "VEC3"
        }
    ],
    "bufferViews" : [
        {
            "buffer" : 0,
            "byteLength" : 3840,
            "byteOffset" : 0,
            "target" : 34962
        },
        {
            "buffer" : 0,
            "byteLength" : 3840,
            "byteOffset" : 3840,
            "target" : 34962
        },
        {
            "buffer" : 0,
            "byteLength" : 2560,
            "byteOffset" : 7680,
            "target" : 34962
        },
        {
            "buffer" : 0,
            "byteLength" : 1128,
            "byteOffset" : 10240,
            "target" : 34963
        },
        {
            "buffer" : 0,
            "byteLength" : 3840,
            "byteOffset" : 11368,
            "target" : 34962
        },
        {
            "buffer" : 0,
            "byteLength" : 3840,
            "byteOffset" : 15208,
            "target" : 34962
        },
        {
            "buffer" : 0,
            "byteLength" : 2560,
            "byteOffset" : 19048,
            "target" : 34962
        },
        {
            "buffer" : 0,
            "byteLength" : 1280,
            "byteOffset" : 21608,
            "target" : 34962
        },
        {
            "buffer" : 0,
            "byteLength" : 5120,
            "byteOffset" : 22888,
            "target" : 34962
        },
        {
            "buffer" : 0,
            "byteLength" : 1128,
            "byteOffset" : 28008,
            "target" : 34963
        },
        {
            "buffer" : 0,
            "byteLength" : 192,
            "byteOffset" : 29136
        },
        {
            "buffer" : 0,
            "byteLength" : 3840,
            "byteOffset" : 29328,
            "target" : 34962
        },
        {
            "buffer" : 0,
            "byteLength" : 3840,
            "byteOffset" : 33168,
            "target" : 34962
        },
        {
            "buffer" : 0,
            "byteLength" : 2560,
            "byteOffset" : 37008,
            "target" : 34962
        },
        {
            "buffer" : 0,
            "byteLength" : 1280,
            "byteOffset" : 39568,
            "target" : 34962
        },
        {
            "buffer" : 0,
            "byteLength" : 5120,
            "byteOffset" : 40848,
            "target" : 34962
        },
        {
            "buffer" : 0,
            "byteLength" : 1128,
            "byteOffset" : 45968,
            "target" : 34963
        },
        {
            "buffer" : 0,
            "byteLength" : 6816,
            "byteOffset" : 47096,
            "target" : 34962
        },
        {
            "buffer" : 0,
            "byteLength" : 6816,
            "byteOffset" : 53912,
            "target" : 34962
        },
        {
            "buffer" : 0,
            "byteLength" : 4544,
            "byteOffset" : 60728,
            "target" : 34962
        },
        {
            "buffer" : 0,
            "byteLength" : 2272,
            "byteOffset" : 65272,
            "target" : 34962
        },
        {
            "buffer" : 0,
            "byteLength" : 9088,
            "byteOffset" : 67544,
            "target" : 34962
        },
        {
            "buffer" : 0,
            "byteLength" : 1896,
            "byteOffset" : 76632,
            "target" : 34963
        },
        {
            "buffer" : 0,
            "byteLength" : 520,
            "byteOffset" : 78528
        },
        {
            "buffer" : 0,
            "byteLength" : 1560,
            "byteOffset" : 79048
        },
        {
            "buffer" : 0,
            "byteLength" : 2080,
            "byteOffset" : 80608
        },
        {
            "buffer" : 0,
            "byteLength" : 1560,
            "byteOffset" : 82688
        },
        {
            "buffer" : 0,
            "byteLength" : 1560,
            "byteOffset" : 84248
        },
        {
            "buffer" : 0,
            "byteLength" : 2080,
            "byteOffset" : 85808
        },
        {
            "buffer" : 0,
            "byteLength" : 1560,
            "byteOffset" : 87888
        },
        {
            "buffer" : 0,
            "byteLength" : 1560,
            "byteOffset" : 89448
        },
        {
            "buffer" : 0,
            "byteLength" : 2080,
            "byteOffset" : 91008
        },
        {
            "buffer" : 0,
            "byteLength" : 1560,
            "byteOffset" : 93088
        },
        {
            "buffer" : 0,
            "byteLength" : 1560,
            "byteOffset" : 94648
        },
        {
            "buffer" : 0,
            "byteLength" : 2080,
            "byteOffset" : 96208
        },
        {
            "buffer" : 0,
            "byteLength" : 1560,
            "byteOffset" : 98288
        }
    ],
    "buffers" : [
        {
            "byteLength" : 99848,
            "uri" : "data:application/octet-stream;base64,"
        }
    ]
}
